<?xml version="1.0" encoding="utf-8"?>
<!-- Generator: Adobe Illustrator 19.1.0, SVG Export Plug-In . SVG Version: 6.00 Build 0)  -->
<!DOCTYPE svg PUBLIC "-//W3C//DTD SVG 1.1//EN" "http://www.w3.org/Graphics/SVG/1.1/DTD/svg11.dtd">
<svg version="1.1" id="Layer_1" xmlns="http://www.w3.org/2000/svg" xmlns:xlink="http://www.w3.org/1999/xlink" x="0px" y="0px"
	 viewBox="0 0 175.8 53.7" style="enable-background:new 0 0 175.8 53.7;" xml:space="preserve">
<style type="text/css">
	.st0{fill:#FFFFFF;}
</style>
<g>
	<g>
		<path id="SVGID_1_" class="st0" d="M163,24l-5.7,2.4c-1,0.4-2,0-2.4-1l-5.1-12.1c-0.4-0.9,0-2,1-2.4l5.5-2.3
			c1.8-0.7,3.4-0.8,4.6-0.3c1,0.4,1.7,1.1,2.2,2.2l0,0c0.7,1.7,0.2,3.1-0.6,4.2c2.1-0.1,3.6,0.5,4.5,2.6l0,0
			C168.2,20.1,166.5,22.5,163,24 M158.5,0c-9.5,0-17.3,7.7-17.3,17.2s7.7,17.2,17.3,17.2c9.5,0,17.3-7.7,17.3-17.2S168,0,158.5,0"/>
	</g>
</g>
<g>
	<g>
		<path id="SVGID_3_" class="st0" d="M5.8,33.1v7h6.6c3.2,0,5.3-0.8,5.3-3.6c0-2.7-2-3.5-5.3-3.5L5.8,33.1L5.8,33.1z M5.8,21.1V28h6
			c2.9,0,5.2-0.6,5.2-3.4s-2.3-3.4-5.2-3.4h-6V21.1z M12,16c6.8,0,11.1,2.5,11.1,8.1c0,2.9-1.8,5.3-4.3,6.2c2.7,0.9,4.9,3.4,4.9,6.6
			c0,5.6-4,8.4-11,8.4H0V16H12z"/>
	</g>
</g>
<g>
	<g>
		<path id="SVGID_5_" class="st0" d="M31.5,33.2h9c-0.5-2.6-2.1-4.1-4.4-4.1C33.5,29.1,32,30.7,31.5,33.2z M46,35.1
			c0,0.6,0,1.4-0.1,1.8H31.5c0.6,2.9,2.6,4.2,5.2,4.2c1.8,0,3.7-0.7,5.1-1.9l3.2,3.5c-2.3,2.1-5.2,3.1-8.7,3.1
			c-6.2,0-10.5-4.2-10.5-10.6S30,24.5,36.1,24.5C42,24.4,46,28.8,46,35.1z"/>
	</g>
</g>
<g>
	<g>
		<path id="SVGID_7_" class="st0" d="M53.3,35.1c0,3.1,2,5.6,5.2,5.6c3.1,0,5.2-2.4,5.2-5.6c0-3.2-2.1-5.6-5.2-5.6
			C55.3,29.5,53.3,32,53.3,35.1z M69,45.2h-5.3V43c-1.3,1.6-3.3,2.8-6.1,2.8c-5.6,0-9.8-4.6-9.8-10.7s4.2-10.7,9.8-10.7
			c2.8,0,4.7,1.1,6.1,2.8V25H69V45.2z"/>
	</g>
</g>
<g>
	<g>
		<path id="SVGID_9_" class="st0" d="M105.1,32.3v12.9h-5.5V34.1c0-2.9-1.5-4.5-4-4.5c-2.3,0-4.3,1.5-4.3,4.6v11.1h-5.5V34.1
			c0-2.9-1.5-4.5-4-4.5c-2.3,0-4.3,1.5-4.3,4.6v11.1H72V25h5.3v2.4c1.4-2.2,3.7-2.9,6-2.9c2.9,0,5.3,1.3,6.7,3.5
			c1.6-2.6,4.2-3.5,6.9-3.5C101.9,24.4,105.1,27.6,105.1,32.3"/>
	</g>
</g>
<g>
	<g>
		<rect id="SVGID_11_" x="108.2" y="15.1" class="st0" width="5.5" height="30.1"/>
	</g>
</g>
<g>
	<g>
		<polyline id="SVGID_13_" class="st0" points="121.9,53.7 115.9,53.7 123,40.9 114.3,25 120.5,25 126.1,35.4 131.5,25 137.5,25 
			121.9,53.7 		"/>
	</g>
</g>
</svg>
